<?xml version="1.0" standalone="no"?>
<!DOCTYPE svg PUBLIC "-//W3C//DTD SVG 20010904//EN"
 "http://www.w3.org/TR/2001/REC-SVG-20010904/DTD/svg10.dtd">
<svg version="1.0" xmlns="http://www.w3.org/2000/svg"
 width="225.000000pt" height="225.000000pt" viewBox="0 0 225.000000 225.000000"
 preserveAspectRatio="xMidYMid meet">
<metadata>
Created by potrace 1.10, written by Peter Selinger 2001-2011
</metadata>
<g transform="translate(0.000000,225.000000) scale(0.100000,-0.100000)"
fill="#000000" stroke="none">
<path d="M1069 2123 c-18 -85 -21 -89 -82 -96 -29 -4 -80 -16 -112 -27 -32
-11 -62 -17 -65 -13 -4 5 -24 29 -44 55 l-38 47 -59 -29 c-32 -17 -59 -33 -59
-36 0 -3 7 -34 16 -69 l16 -64 -84 -84 -84 -84 -69 24 -70 24 -15 -22 c-8 -12
-25 -39 -37 -59 l-23 -37 60 -57 c48 -46 58 -61 51 -74 -12 -23 -37 -125 -45
-183 l-7 -46 -74 -18 -75 -19 0 -67 0 -68 58 -11 c31 -6 69 -13 83 -16 20 -4
28 -13 33 -35 3 -16 17 -59 32 -95 l26 -65 -41 -54 c-23 -30 -44 -61 -47 -68
-5 -13 57 -98 76 -105 5 -2 35 10 67 26 l58 30 68 -62 67 -62 -20 -59 c-11
-32 -20 -64 -20 -71 0 -7 26 -27 57 -45 l57 -32 53 57 53 57 46 -16 c25 -8 77
-21 115 -27 42 -7 69 -17 69 -25 0 -6 5 -35 11 -63 l11 -50 68 0 68 0 6 32
c19 94 26 108 54 108 15 0 58 11 97 24 l69 24 58 -50 58 -51 55 42 55 42 -25
49 c-14 27 -25 53 -25 57 0 4 29 34 65 66 l64 57 62 -25 c34 -14 63 -24 64
-22 1 1 18 26 39 56 l38 54 -46 46 c-25 26 -46 52 -46 58 0 5 9 32 20 59 10
27 24 67 29 90 11 40 11 40 86 58 l75 18 0 67 0 67 -67 14 -68 15 -6 65 c-4
36 -18 97 -31 137 l-24 72 47 48 48 48 -35 57 -35 56 -60 -20 -60 -20 -82 78
c-45 44 -83 82 -85 85 -2 4 8 31 22 62 l24 55 -54 36 c-29 20 -57 36 -61 36
-4 0 -30 -23 -58 -50 l-51 -51 -35 15 c-19 7 -60 19 -91 26 l-57 13 -16 73
-16 74 -69 0 -69 0 -12 -57z m114 10 c8 -10 21 -39 27 -64 9 -35 19 -50 38
-59 25 -12 26 -13 7 -21 -15 -5 -8 -8 26 -8 25 -1 66 -7 92 -15 40 -12 50 -12
84 4 21 9 47 27 57 39 24 26 46 27 74 1 20 -19 20 -22 7 -67 -8 -27 -15 -52
-15 -57 0 -5 39 -48 87 -97 92 -94 103 -99 171 -80 40 12 55 7 72 -24 11 -21
9 -28 -24 -68 -38 -47 -43 -68 -25 -114 19 -48 27 -93 18 -99 -5 -3 -9 -28 -9
-55 0 -32 4 -48 10 -44 7 4 9 26 5 53 -4 34 -3 41 4 27 5 -11 13 -41 16 -67 6
-43 9 -48 49 -67 23 -12 48 -21 54 -21 16 0 27 -50 15 -69 -6 -9 -31 -21 -58
-28 -28 -7 -54 -21 -64 -35 -16 -24 -17 -26 -20 -55 -2 -16 -3 -15 -10 2 -8
20 -8 20 -15 -2 -4 -12 -4 -34 -1 -50 5 -21 4 -24 -4 -13 -13 18 -13 19 -16
-48 -3 -47 0 -57 32 -99 31 -41 34 -48 22 -69 -15 -30 -39 -37 -73 -24 -50 19
-83 21 -96 5 -7 -8 -20 -15 -29 -15 -14 1 -13 3 3 15 10 7 15 18 11 24 -3 6
-1 11 4 11 6 0 11 4 11 10 0 5 16 30 35 56 19 25 35 54 35 64 0 23 17 35 23
18 2 -7 2 -3 0 9 -2 13 7 53 19 90 20 58 23 89 23 213 0 124 -3 155 -23 213
-13 38 -20 78 -17 90 2 12 2 16 -1 9 -8 -17 -24 -5 -24 19 0 10 -9 28 -20 39
-12 12 -18 25 -15 31 4 5 1 8 -7 7 -8 -2 -12 4 -10 15 2 10 -3 16 -10 15 -8
-2 -12 4 -10 16 2 11 -1 15 -7 11 -6 -3 -11 -1 -11 6 0 18 -89 101 -100 94 -6
-4 -7 1 -3 11 5 13 3 16 -10 11 -11 -4 -17 -1 -17 7 0 8 -8 13 -17 12 -10 0
-17 4 -16 10 1 7 -5 11 -15 10 -9 0 -16 4 -15 11 2 7 -3 10 -10 7 -17 -6 -91
33 -75 40 7 3 1 3 -14 0 -16 -4 -28 -2 -28 3 0 5 -21 15 -47 23 -96 28 -443
12 -443 -21 0 -5 -12 -6 -26 -3 -18 5 -25 3 -21 -3 8 -13 -20 -26 -35 -16 -6
3 -8 1 -5 -4 9 -14 -17 -24 -40 -17 -14 5 -15 4 -4 -4 15 -11 -2 -27 -19 -17
-6 4 -9 1 -8 -7 2 -7 -6 -13 -17 -13 -11 -1 -19 -6 -18 -13 2 -6 -4 -9 -12 -6
-9 4 -15 0 -15 -10 0 -9 -4 -16 -8 -16 -14 0 -52 -36 -52 -50 0 -7 -7 -10 -16
-6 -12 5 -15 2 -10 -9 3 -10 2 -13 -5 -10 -6 4 -13 -2 -16 -14 -3 -11 -10 -18
-16 -14 -6 4 -8 0 -4 -10 4 -11 1 -17 -9 -17 -9 0 -14 -6 -11 -12 2 -7 -13
-38 -33 -68 -20 -30 -40 -68 -43 -85 -3 -16 -11 -48 -17 -70 -32 -108 -33
-265 -3 -375 8 -30 17 -66 20 -80 6 -34 23 -69 50 -106 13 -17 23 -37 23 -45
1 -17 28 -55 38 -52 4 1 6 -5 4 -14 -2 -11 1 -14 12 -10 11 4 13 1 9 -10 -4
-11 -2 -14 8 -11 8 3 20 -8 30 -26 9 -18 24 -31 35 -31 11 0 18 -5 17 -11 -2
-11 8 -16 147 -84 72 -35 79 -48 13 -23 -16 6 -16 5 -4 -10 12 -15 11 -17 -3
-17 -9 0 -32 -14 -51 -31 -65 -60 -68 -61 -98 -33 -27 25 -29 51 -7 93 14 26
-7 78 -46 114 -103 92 -97 89 -146 72 -74 -28 -78 -28 -98 -10 -27 24 -25 39
9 88 48 71 48 94 1 187 -4 9 -11 30 -14 48 -8 33 -48 72 -75 72 -9 0 -33 5
-54 11 -33 9 -37 13 -37 43 0 39 10 48 66 64 50 14 70 36 78 82 3 19 13 62 22
95 32 120 31 127 -19 183 -47 52 -52 77 -20 104 11 9 24 9 59 0 86 -23 96 -20
190 73 l86 84 -6 52 c-4 28 -9 56 -12 61 -7 12 15 38 41 48 16 6 29 -1 62 -32
40 -39 96 -58 109 -37 3 5 16 9 29 9 13 0 26 4 29 9 3 5 32 7 63 5 38 -2 49 0
33 5 -24 7 -24 8 12 20 32 11 40 20 58 68 12 31 23 60 26 65 9 14 50 9 67 -9z
m172 -217 c96 -33 149 -62 233 -130 111 -89 200 -229 239 -376 23 -87 23 -253
0 -340 -55 -208 -194 -378 -382 -470 -105 -51 -187 -70 -311 -70 -314 0 -583
195 -681 495 -37 112 -39 292 -5 410 66 229 245 412 473 484 92 29 101 30 234
27 99 -3 134 -8 200 -30z m263 -1244 c9 7 6 0 -6 -16 -25 -33 -26 -46 -7 -100
14 -41 11 -66 -10 -66 -7 0 -15 -5 -17 -11 -6 -17 -38 -4 -77 31 -18 17 -40
30 -47 30 -8 0 -11 6 -8 15 5 11 1 14 -12 9 -18 -5 -18 -5 -1 6 9 6 27 9 40 6
12 -3 16 -3 10 0 -20 9 -15 24 7 24 11 0 20 5 20 10 0 6 9 10 20 10 11 0 25 9
32 19 6 10 18 17 25 14 8 -3 12 0 10 8 -2 8 -2 10 1 6 2 -4 11 -2 20 5z m-351
-164 c-7 -4 -66 -8 -132 -8 -66 0 -125 4 -132 8 -7 4 53 8 132 8 79 0 139 -4
132 -8z m-47 -50 c-11 -18 -20 -39 -20 -47 0 -27 -29 -48 -60 -43 -24 3 -32
11 -40 41 -5 20 -17 46 -25 59 l-16 22 90 0 91 0 -20 -32z"/>
<path d="M1065 1874 c-11 -2 -45 -9 -75 -15 -95 -19 -213 -82 -293 -158 -63
-60 -70 -71 -58 -85 7 -9 17 -16 21 -16 13 0 21 33 10 40 -12 7 91 110 110
110 6 0 8 -4 5 -10 -8 -13 6 -13 25 0 12 8 13 11 1 19 -10 6 -10 10 -1 16 7 4
16 2 20 -5 4 -7 13 -9 20 -5 9 6 9 9 0 15 -7 4 3 14 26 25 22 10 39 14 41 8 2
-6 16 -8 31 -6 21 4 24 2 12 -6 -8 -6 -32 -8 -52 -4 -36 5 -55 -9 -25 -20 7
-3 5 -7 -8 -12 -41 -16 -145 -97 -181 -141 l-38 -46 -17 23 -17 23 -31 -49
c-69 -109 -95 -217 -89 -369 8 -170 64 -300 180 -414 81 -79 156 -126 256
-159 75 -24 102 -28 197 -28 170 1 309 54 427 163 216 201 269 511 132 773
-70 133 -246 289 -244 216 1 -7 23 -29 51 -51 28 -21 48 -41 45 -44 -3 -2 -23
11 -45 31 -22 19 -49 40 -61 47 l-21 11 23 18 22 19 -39 20 c-93 47 -287 83
-360 66z m161 -21 c-8 -8 -177 -5 -185 3 -2 2 40 4 94 4 54 0 95 -3 91 -7z
m-181 -24 c27 -1 26 -2 -10 -9 -22 -4 -41 -4 -43 1 -2 5 -13 9 -25 10 -20 1
-20 2 3 8 14 5 29 4 35 -1 5 -4 23 -9 40 -9z m260 3 c-11 -2 -23 -9 -26 -14
-4 -5 -24 -5 -55 0 l-49 10 43 1 c23 0 42 5 42 9 0 5 15 6 33 3 23 -3 27 -6
12 -9z m65 -18 l25 -15 -27 5 c-16 4 -28 1 -30 -6 -4 -10 -10 -10 -29 -1 l-24
12 28 0 c16 1 26 5 22 11 -9 14 6 12 35 -6z m-102 -19 c118 -28 243 -108 313
-200 68 -90 101 -173 123 -302 l6 -33 -100 0 -100 0 0 27 c0 17 -30 72 -81
149 -79 120 -81 122 -135 139 -55 17 -55 17 -106 -8 -50 -25 -51 -25 -82 -6
-34 21 -83 24 -136 9 -29 -8 -50 -31 -125 -135 -49 -69 -91 -136 -93 -150 -3
-25 -4 -25 -99 -25 l-95 0 7 43 c31 203 143 361 317 446 46 23 103 45 128 50
71 14 190 12 258 -4z m263 -76 c21 -17 39 -35 39 -41 0 -5 -12 2 -27 16 -16
14 -37 32 -48 40 -11 9 -16 16 -11 16 4 0 26 -14 47 -31z m66 -75 c7 6 63 -66
86 -111 12 -23 13 -33 5 -35 -9 -3 -9 -12 1 -36 7 -17 11 -37 8 -44 -4 -9 -6
-9 -6 2 -1 9 -17 46 -36 83 -37 71 -41 82 -25 72 6 -3 10 -1 10 4 0 6 -6 11
-14 11 -8 0 -13 7 -12 16 0 9 -5 19 -13 22 -10 3 -12 0 -7 -14 4 -12 -2 -8
-19 10 -30 33 -32 40 -4 26 11 -7 23 -9 26 -6z m-960 -92 c-6 -7 -21 -34 -33
-60 -12 -26 -23 -39 -23 -30 -1 9 3 19 8 22 5 3 11 18 14 33 4 24 3 26 -7 10
-6 -10 -17 -26 -24 -35 -13 -16 -13 -16 -8 0 2 9 16 35 31 57 21 34 28 39 39
29 10 -10 11 -17 3 -26z m451 -2 l42 -19 0 -115 c0 -98 -3 -116 -17 -125 -9
-5 -26 -6 -37 -1 -33 12 -105 21 -81 10 16 -7 12 -9 -20 -8 -80 1 -101 -2 -85
-12 8 -5 47 -7 87 -3 40 3 78 2 85 -3 7 -5 51 -8 98 -7 89 3 252 18 235 22
-21 5 -133 -1 -168 -9 -21 -4 -35 -4 -31 1 3 5 -10 6 -28 3 -23 -4 -29 -2 -18
4 8 5 35 13 59 17 32 5 40 10 30 17 -10 7 -4 8 20 4 18 -3 70 -6 115 -7 60 -1
74 -3 56 -10 -18 -6 -11 -7 24 -3 l49 6 -5 -31 c-2 -17 0 -33 6 -36 14 -7 -23
0 -49 10 -17 6 -17 5 -5 -5 12 -9 10 -10 -10 -4 -45 14 -252 6 -270 -11 -23
-21 -53 -19 -83 5 -22 18 -37 20 -116 16 -52 -2 -89 0 -85 5 3 5 -7 4 -23 -2
-15 -5 -37 -8 -49 -5 -13 4 -26 2 -29 -4 -3 -5 -13 -10 -21 -10 -10 0 -12 5
-7 13 4 6 8 19 8 27 0 19 110 48 186 49 31 1 78 -6 105 -14 62 -19 66 -18 29
2 -43 24 -188 30 -254 10 -34 -10 -48 -11 -44 -3 4 6 42 59 85 118 67 90 84
108 116 116 52 14 52 14 100 -8z m215 5 c27 -11 52 -39 106 -119 39 -58 71
-107 71 -109 0 -3 -17 1 -37 9 -56 20 -178 17 -243 -6 -30 -10 -55 -18 -55
-17 0 1 2 51 5 110 l5 109 35 19 c43 22 67 23 113 4z m433 -195 c1 -36 6 -102
9 -148 5 -58 4 -87 -5 -97 -6 -8 -9 -18 -6 -24 3 -5 2 -20 -3 -33 l-10 -23 0
23 c-1 13 -5 20 -11 17 -13 -8 -13 -42 -1 -47 10 -3 -42 -123 -56 -129 -4 -2
-15 -17 -23 -33 -17 -33 -29 -40 -49 -27 -13 8 -13 12 -1 28 8 10 -4 1 -26
-19 l-40 -38 -77 46 c-51 30 -77 52 -77 64 0 33 -12 50 -48 67 -46 22 -96 22
-121 -1 -10 -10 -22 -13 -25 -8 -7 11 11 27 45 41 21 9 22 10 3 10 -25 1 -74
51 -74 77 -1 14 -4 11 -14 -11 -16 -36 -35 -54 -73 -65 -25 -7 -26 -8 -5 -9
40 -2 15 -18 -27 -18 -56 0 -103 -31 -114 -73 -8 -35 -13 -39 -114 -92 l-43
-22 -35 34 c-41 40 -43 50 -12 50 30 0 103 44 99 59 -1 7 2 10 7 7 5 -3 22 1
37 9 16 8 40 15 54 15 14 0 43 9 65 20 27 14 33 20 19 20 -30 0 -78 54 -69 77
7 17 7 17 15 -2 12 -32 47 -58 70 -52 11 3 22 1 26 -4 7 -12 61 17 74 40 20
39 12 91 -19 122 -16 16 -24 29 -17 29 19 0 66 -49 66 -69 1 -9 7 -2 15 16 7
17 23 36 34 43 27 14 26 9 -4 -36 -14 -20 -25 -44 -25 -54 0 -32 44 -84 76
-90 27 -6 30 -4 32 19 1 14 9 29 17 34 19 10 19 51 0 67 -8 7 -25 10 -40 6
-20 -5 -25 -13 -25 -36 0 -16 6 -33 13 -37 17 -11 18 -43 1 -43 -27 0 -54 39
-54 77 0 51 32 83 81 83 76 0 108 -94 48 -144 -19 -16 -25 -26 -15 -26 18 0
56 46 56 69 0 14 2 14 10 1 14 -21 13 -25 -16 -59 -14 -17 -35 -31 -47 -31
-16 0 -11 -5 18 -20 22 -11 51 -20 65 -20 14 0 56 -21 94 -45 73 -47 128 -59
140 -30 4 12 2 13 -12 7 -16 -9 -23 -8 -62 4 -13 5 -13 6 0 15 12 8 11 9 -5 5
-11 -3 -31 1 -45 9 -14 8 -21 14 -17 15 5 0 2 7 -7 15 -8 9 -19 14 -23 13 -12
-3 -96 13 -111 21 -20 11 32 53 69 56 18 2 26 0 19 -5 -17 -10 5 -24 27 -16
11 5 14 2 9 -9 -3 -9 -1 -15 7 -14 6 1 19 1 27 0 13 -1 13 -3 1 -10 -11 -7 -8
-9 10 -9 34 -1 148 -30 124 -32 -11 -1 -15 -4 -8 -6 7 -3 10 -13 7 -22 -4 -13
-2 -13 8 2 7 11 25 33 39 50 14 17 29 43 33 59 7 31 -2 77 -16 77 -5 0 -6 -4
-3 -10 4 -6 -15 -10 -49 -10 -31 0 -56 4 -56 8 0 4 -16 14 -36 21 -24 9 -32
16 -24 21 8 5 6 9 -7 15 -10 5 -22 7 -26 6 -5 -1 -6 3 -2 9 3 5 1 10 -5 10 -6
0 -8 5 -4 11 3 6 15 9 25 6 10 -3 22 -1 25 4 7 12 174 12 174 0 0 -5 -5 -11
-12 -13 -7 -3 -6 -7 5 -11 13 -5 17 -1 17 18 0 13 5 27 11 31 11 6 5 97 -9
132 -3 10 -1 13 6 8 8 -5 12 1 12 18 0 14 -4 28 -10 31 -5 3 -10 16 -9 28 2
48 31 -49 35 -113z m-1164 76 c8 5 9 1 5 -10 -4 -10 -8 -25 -8 -34 -2 -22 -17
37 -16 63 0 16 1 16 4 -3 3 -13 9 -19 15 -16z m-23 -71 c5 2 6 -14 4 -38 -3
-23 0 -61 6 -84 9 -33 15 -41 28 -36 11 4 13 8 5 11 -7 2 -12 8 -12 13 0 12
167 12 174 0 3 -5 14 -7 25 -4 11 3 21 -2 25 -12 3 -9 2 -13 -4 -10 -6 3 -10
1 -10 -4 0 -6 -7 -11 -16 -11 -8 0 -13 -4 -9 -10 7 -11 -46 -40 -77 -41 -22 0
-22 -1 -3 -9 14 -6 2 -9 -40 -9 -42 0 -54 3 -40 9 19 8 18 9 -4 9 -18 1 -22 5
-18 21 3 11 1 23 -4 26 -16 10 -9 -54 8 -71 13 -13 29 -16 69 -13 52 4 61 9
164 84 39 28 98 31 91 4 -2 -8 -4 -30 -4 -47 -1 -26 -5 -33 -21 -33 -10 0 -50
-21 -89 -47 -63 -44 -74 -48 -129 -48 l-60 0 -19 45 c-18 42 -19 43 -13 10 3
-19 14 -44 23 -55 28 -33 71 -104 71 -116 0 -7 7 -21 17 -31 22 -24 8 -36 -16
-14 -11 10 -25 15 -32 10 -9 -5 -10 -2 -6 9 4 10 2 16 -6 14 -7 -1 -11 4 -9
11 1 6 -2 12 -7 12 -5 0 -24 30 -41 66 -23 50 -28 69 -19 74 7 5 9 16 5 26 -5
14 -9 15 -15 6 -12 -20 -31 89 -30 167 1 50 3 59 9 36 l7 -30 8 28 c4 16 3 38
-2 50 -6 12 -8 38 -4 57 l6 35 3 -33 c2 -18 7 -30 11 -27z m791 -167 c0 -20
-1 -19 -20 5 -11 14 -20 28 -20 31 0 4 9 2 20 -4 11 -6 20 -20 20 -32z m-265
-3 c36 -35 33 -79 -7 -118 -32 -31 -33 -31 -36 -9 -2 12 4 29 12 38 31 31 13
74 -31 74 -32 0 -46 -37 -27 -67 16 -26 18 -53 4 -53 -23 0 -50 41 -50 77 0
76 82 112 135 58z m398 -28 c70 -57 104 -70 164 -64 29 3 53 1 53 -4 0 -5 -7
-27 -16 -49 -15 -38 -18 -40 -60 -40 -53 0 -94 16 -165 64 -30 20 -62 36 -71
36 -13 0 -18 8 -18 28 0 15 -3 38 -7 51 -6 23 -5 24 36 18 27 -3 57 -17 84
-40z m-542 -121 c22 -27 18 -32 -33 -40 -66 -11 -71 -12 -108 -29 -19 -9 -29
-16 -22 -17 7 0 10 -5 7 -10 -4 -6 -15 -8 -26 -5 -14 5 -17 2 -13 -8 3 -10 -4
-16 -22 -20 -20 -4 -33 2 -51 21 -16 17 -20 28 -13 30 9 3 9 6 0 12 -7 4 8 10
36 15 27 4 55 11 61 17 7 6 19 8 28 4 8 -3 14 0 12 6 -1 7 4 13 11 14 6 1 17
2 23 3 5 0 8 5 4 10 -3 5 -1 12 5 16 5 3 10 1 10 -5 0 -6 5 -8 10 -5 6 4 8 11
5 16 -12 18 60 -5 76 -25z m233 -2 c18 -25 18 -26 -5 -50 l-23 -24 -28 27 -28
27 26 23 c33 28 35 28 58 -3z m-50 -69 c9 -14 16 -32 17 -42 0 -10 5 -3 11 16
6 23 13 30 20 23 7 -7 6 -16 -1 -30 -17 -33 -13 -55 17 -91 24 -29 33 -33 55
-27 17 4 27 13 27 25 0 10 7 22 16 25 20 8 15 55 -9 70 -35 22 -79 -42 -45
-68 18 -15 19 -46 2 -46 -28 0 -54 39 -54 79 0 73 84 108 135 56 37 -36 34
-86 -7 -120 -24 -20 -27 -26 -13 -24 11 3 29 19 40 36 22 35 35 42 35 18 0
-30 -53 -76 -95 -81 -34 -5 -47 -1 -82 25 -24 17 -43 39 -43 49 0 11 -7 6 -20
-16 -26 -43 -77 -67 -124 -58 -20 4 -36 11 -36 16 0 6 -6 10 -13 10 -18 0 -40
43 -35 66 4 16 7 14 17 -10 15 -38 40 -56 74 -54 19 2 27 8 27 21 0 10 7 25
15 33 33 33 6 81 -39 70 -34 -8 -39 -31 -16 -73 22 -41 20 -48 -9 -38 -46 14
-58 91 -20 131 49 52 139 14 139 -58 -1 -36 -14 -58 -45 -76 -17 -9 -17 -11
-3 -12 26 0 58 48 58 90 0 25 -8 45 -24 63 -13 14 -22 28 -19 31 9 9 32 -5 47
-29z m-108 -53 c-2 -4 -1 -14 4 -22 7 -12 11 -9 19 10 l11 25 -3 -25 c-2 -29
-31 -39 -41 -15 -6 16 0 35 10 35 3 0 3 -4 0 -8z m404 -82 c-8 -5 -9 -10 -2
-14 6 -3 13 -2 17 4 4 6 11 8 16 4 6 -3 1 -13 -12 -22 -16 -11 -24 -12 -27 -4
-2 7 -12 12 -23 12 -11 0 -19 7 -19 16 0 10 6 14 15 11 8 -4 17 -2 20 4 4 5
11 6 17 3 7 -4 6 -9 -2 -14z m-728 -15 c21 -27 41 -34 32 -10 -5 11 3 10 33
-5 48 -25 68 -41 76 -62 3 -10 13 -18 22 -18 19 0 19 -7 1 -25 -14 -15 -20
-13 -95 43 -26 19 -30 27 -20 34 11 7 9 8 -4 4 -10 -3 -24 0 -30 7 -35 37 -49
57 -42 57 4 0 16 -11 27 -25z m223 14 c4 -6 -2 -13 -14 -16 -11 -3 -18 -9 -15
-14 7 -11 4 -11 -34 2 -34 12 -34 34 0 23 14 -4 18 -2 14 5 -5 7 2 11 18 11
14 0 28 -5 31 -11z m669 -40 c-10 -11 -20 -17 -23 -14 -3 4 1 11 9 16 13 9 13
10 0 6 -8 -2 -17 -12 -19 -23 -2 -10 -15 -29 -29 -41 -35 -30 -122 -76 -129
-69 -3 3 11 13 33 23 27 12 34 18 22 21 -10 2 -37 -10 -61 -27 -36 -26 -54
-32 -112 -36 -39 -2 -56 -2 -40 1 62 9 112 27 173 62 64 37 74 54 45 71 -16 9
-16 10 -1 11 9 0 18 -5 20 -11 2 -7 20 -2 48 14 24 13 52 22 62 19 18 -4 18
-6 2 -23z m-740 5 c22 -9 20 -24 -3 -24 -21 0 -34 13 -24 24 8 7 8 7 27 0z
m347 -14 c54 -24 81 -25 141 -3 46 16 49 16 90 -3 l41 -20 -34 -21 c-19 -12
-70 -34 -114 -49 -140 -47 -293 -36 -429 33 l-50 25 25 19 c36 28 60 32 101
14 49 -20 85 -19 128 4 46 24 50 24 101 1z m-285 -89 c11 -11 99 -39 139 -44
17 -3 1 -3 -34 -1 -35 2 -74 10 -86 18 -13 9 -32 12 -46 9 -21 -6 -21 -5 -8
10 16 19 22 20 35 8z m244 -62 c71 0 142 3 157 6 16 2 11 -1 -12 -9 -55 -20
-236 -20 -300 -1 -41 12 -43 14 -12 9 20 -3 95 -5 167 -5z"/>
<path d="M1640 1560 c0 -8 9 -26 20 -40 13 -17 20 -20 20 -10 0 8 -9 26 -20
40 -13 17 -20 20 -20 10z"/>
<path d="M963 1502 c-6 -4 20 -7 57 -7 37 0 63 3 57 7 -7 4 -32 8 -57 8 -25 0
-50 -4 -57 -8z"/>
<path d="M943 1460 c-34 -14 -28 -21 7 -9 31 11 110 8 145 -5 12 -5 10 -2 -5
8 -27 17 -112 20 -147 6z"/>
<path d="M923 1419 c-18 -5 -33 -12 -33 -15 0 -3 10 -2 23 2 12 4 47 10 77 14
55 7 55 7 10 8 -25 0 -60 -4 -77 -9z"/>
<path d="M948 1373 c17 -2 47 -2 65 0 17 2 3 4 -33 4 -36 0 -50 -2 -32 -4z"/>
<path d="M1200 1454 c-14 -8 -16 -12 -5 -7 11 4 54 8 97 8 42 0 71 3 65 7 -22
14 -131 8 -157 -8z"/>
<path d="M1225 1415 c-16 -8 -21 -12 -10 -9 40 13 122 16 160 5 28 -7 35 -7
27 1 -18 18 -143 20 -177 3z"/>
<path d="M1235 1371 c-11 -4 18 -6 65 -4 110 6 125 11 30 12 -41 0 -84 -4 -95
-8z"/>
<path d="M719 1691 c-24 -21 -41 -42 -37 -46 4 -4 29 13 55 39 58 56 43 62
-18 7z"/>
<path d="M300 455 c0 -18 -72 -38 -108 -30 l-27 6 0 -121 0 -120 30 0 c17 0
55 7 85 15 30 8 57 11 60 6 3 -4 34 -11 70 -15 88 -10 167 -28 347 -82 336
-99 410 -99 728 1 172 55 251 73 335 77 36 2 68 7 71 12 4 5 28 4 55 -2 27 -6
66 -14 87 -17 l37 -6 0 126 c0 124 0 126 -21 120 -12 -4 -41 -4 -66 0 -33 5
-47 12 -50 26 -5 18 -11 19 -47 14 -77 -12 -192 -44 -322 -90 -201 -72 -309
-95 -442 -95 -146 0 -222 16 -472 100 -168 57 -293 89 -342 90 -5 0 -8 -7 -8
-15z m340 -95 c255 -86 332 -103 475 -103 144 -1 215 15 490 108 105 35 214
67 243 71 60 8 58 11 42 -96 -20 -126 -14 -117 -83 -124 -87 -10 -205 -39
-351 -86 -286 -93 -370 -92 -691 5 -158 48 -321 85 -377 85 l-34 0 -12 98
c-18 143 -23 132 56 115 37 -7 146 -40 242 -73z m-322 -17 c7 -43 12 -83 12
-90 0 -12 -41 -28 -102 -39 l-38 -6 0 94 0 94 53 11 c28 5 55 11 58 11 3 1 11
-33 17 -75z m1685 59 l47 -4 0 -94 c0 -107 5 -102 -93 -82 l-59 12 6 61 c12
111 17 127 35 119 9 -4 37 -9 64 -12z"/>
<path d="M1813 335 c2 -23 7 -31 25 -33 19 -3 22 1 22 27 0 17 -4 31 -9 31 -4
0 -6 -11 -3 -25 6 -34 -11 -32 -25 3 l-12 27 2 -30z"/>
<path d="M382 325 c-16 -35 -15 -40 4 -24 13 10 17 10 25 -2 6 -10 9 -5 9 19
0 39 -22 43 -38 7z"/>
<path d="M1760 340 c-8 -5 -10 -10 -4 -10 6 0 15 -10 21 -22 10 -22 10 -21 15
10 5 33 -5 40 -32 22z"/>
<path d="M438 315 c-6 -29 10 -42 38 -31 23 9 14 50 -12 54 -16 2 -23 -3 -26
-23z"/>
<path d="M500 300 c0 -32 14 -40 24 -14 4 9 2 13 -5 8 -8 -4 -9 1 -4 15 4 12
2 21 -4 21 -6 0 -11 -13 -11 -30z"/>
<path d="M530 311 c0 -6 4 -12 10 -16 5 -3 7 -13 4 -23 -5 -14 -3 -14 10 2 9
11 16 25 16 30 0 6 -5 4 -10 -4 -8 -13 -10 -12 -10 3 0 9 -4 17 -10 17 -5 0
-10 -4 -10 -9z"/>
<path d="M1676 293 c6 -36 -10 -46 -21 -13 -5 16 -12 19 -33 14 -36 -9 -36 -9
-27 -41 6 -21 9 -23 12 -10 3 9 9 17 14 17 5 0 9 8 10 18 0 13 3 12 11 -5 6
-13 17 -23 25 -23 20 0 27 28 14 53 -10 20 -10 18 -5 -10z"/>
<path d="M1701 290 c12 -33 24 -41 16 -10 -3 11 -1 20 5 20 5 0 6 5 3 10 -3 6
-12 10 -20 10 -11 0 -12 -6 -4 -30z"/>
<path d="M580 284 c-13 -33 -13 -31 10 -37 11 -3 20 -1 20 4 0 5 -6 9 -12 9
-9 0 -8 4 2 10 13 9 13 10 0 11 -10 0 -9 3 4 8 18 7 18 8 2 14 -12 5 -19 0
-26 -19z"/>
<path d="M630 281 c0 -5 -3 -18 -6 -28 -6 -16 -5 -16 9 2 16 20 16 20 17 -2 0
-26 15 -31 24 -7 9 24 7 41 -4 24 -8 -12 -10 -12 -16 3 -6 18 -24 24 -24 8z"/>
<path d="M1551 259 c-5 -13 -6 -28 -3 -34 3 -5 9 1 13 15 4 15 7 18 8 8 1 -9
6 -20 12 -24 8 -4 9 1 4 17 -12 38 -24 45 -34 18z"/>
<path d="M727 232 c-22 -24 -10 -37 12 -14 9 10 13 13 9 8 -3 -4 -4 -15 -1
-23 5 -12 7 -12 14 -1 25 39 -3 64 -34 30z"/>
<path d="M1450 219 c0 -17 4 -28 10 -24 5 3 7 13 4 23 -5 16 -5 16 6 0 6 -10
15 -18 21 -18 5 0 2 11 -7 25 -22 34 -34 32 -34 -6z"/>
<path d="M787 226 c-4 -10 -7 -25 -7 -34 0 -14 2 -14 9 -3 7 11 11 10 20 -5
11 -18 11 -18 9 1 -1 11 2 26 6 34 7 11 5 13 -7 8 -9 -3 -17 -1 -20 6 -2 6 -6
3 -10 -7z"/>
<path d="M834 205 c-4 -10 0 -24 10 -33 16 -16 18 -16 32 3 18 24 13 39 -14
43 -14 2 -25 -3 -28 -13z"/>
<path d="M900 201 c0 -5 -3 -18 -6 -28 -5 -15 -4 -15 5 -3 8 12 11 12 17 -4 6
-17 8 -16 21 5 14 23 14 23 10 2 -3 -13 1 -24 11 -28 8 -3 16 -4 17 -3 1 2 7
12 14 23 11 19 11 19 9 1 -2 -10 2 -21 8 -23 7 -2 10 6 6 22 -7 37 -19 39 -36
8 l-15 -28 -1 28 c0 29 -9 34 -28 15 -9 -9 -12 -8 -12 5 0 9 -4 17 -10 17 -5
0 -10 -4 -10 -9z"/>
<path d="M1307 204 c-4 -4 -7 -21 -7 -38 0 -22 3 -27 9 -17 5 8 7 21 4 30 -3
9 4 5 16 -9 25 -30 28 -14 3 18 -10 13 -21 20 -25 16z"/>
<path d="M1257 193 c-13 -12 -7 -32 11 -36 16 -4 16 -5 0 -6 -10 0 -18 -6 -18
-12 0 -6 7 -8 16 -5 9 3 18 6 20 6 14 0 1 30 -13 31 -11 0 -13 3 -5 6 6 2 12
9 12 14 0 11 -14 12 -23 2z"/>
<path d="M1046 164 c-6 -24 -2 -43 8 -33 11 10 17 59 8 59 -5 0 -13 -12 -16
-26z"/>
<path d="M1223 172 c3 -14 1 -20 -5 -16 -6 4 -9 1 -6 -6 2 -8 10 -16 16 -18
15 -5 15 28 1 48 -9 12 -10 11 -6 -8z"/>
<path d="M1112 150 c-10 -29 0 -44 12 -17 5 10 7 10 12 0 11 -24 22 -13 15 14
-10 38 -27 39 -39 3z"/>
</g>
</svg>
