<?xml version="1.0" standalone="no"?>
<!DOCTYPE svg PUBLIC "-//W3C//DTD SVG 20010904//EN"
 "http://www.w3.org/TR/2001/REC-SVG-20010904/DTD/svg10.dtd">
<svg version="1.0" xmlns="http://www.w3.org/2000/svg"
 width="225.000000pt" height="225.000000pt" viewBox="0 0 225.000000 225.000000"
 preserveAspectRatio="xMidYMid meet">

<g transform="translate(0.000000,225.000000) scale(0.100000,-0.100000)"
fill="#000000" stroke="none">
<path d="M1070 2123 c-16 -78 -26 -93 -58 -93 -24 0 -140 -28 -182 -44 -10 -4
-30 12 -59 48 l-43 55 -59 -30 c-33 -16 -59 -32 -59 -35 0 -3 7 -34 16 -69
l16 -65 -83 -83 -84 -84 -50 17 c-27 9 -60 20 -71 24 -18 6 -27 -2 -53 -44
-17 -28 -31 -56 -31 -63 0 -7 24 -36 53 -65 l54 -53 -18 -53 c-10 -29 -23 -84
-29 -121 -6 -38 -12 -70 -13 -71 -1 0 -33 -9 -72 -20 -68 -19 -70 -21 -73 -54
-6 -58 6 -99 31 -105 12 -2 47 -9 78 -15 52 -10 57 -14 63 -41 3 -16 17 -59
32 -95 l26 -65 -41 -54 c-23 -30 -44 -61 -47 -68 -5 -13 57 -98 76 -105 5 -2
35 10 67 26 l58 30 68 -62 67 -62 -20 -59 c-11 -32 -20 -63 -20 -69 0 -6 26
-27 57 -45 l57 -34 52 57 52 58 38 -13 c22 -7 73 -20 114 -29 l75 -15 13 -63
14 -62 67 0 68 0 13 58 c14 66 24 82 54 82 11 0 52 11 89 24 l69 23 58 -49 59
-49 51 38 c27 20 50 42 50 48 0 5 -9 30 -20 54 -11 24 -20 46 -20 50 0 4 29
33 64 64 l64 57 64 -24 63 -24 37 56 38 57 -47 47 -46 46 33 100 c31 94 34
100 63 106 17 4 48 11 69 17 l38 10 0 68 0 68 -62 14 -63 14 -8 69 c-4 37 -17
99 -30 137 l-23 68 47 47 47 46 -32 54 c-17 29 -38 54 -47 54 -8 0 -37 -7 -63
-16 l-47 -16 -82 78 c-45 44 -83 82 -85 85 -1 3 7 27 18 53 11 26 20 53 20 59
0 11 -92 77 -107 77 -4 0 -30 -23 -58 -50 l-51 -51 -35 15 c-19 7 -60 19 -91
26 l-57 13 -17 73 -18 74 -67 0 -68 0 -11 -57z m285 -207 c188 -64 329 -187
415 -361 55 -111 73 -189 73 -315 0 -121 -17 -200 -67 -305 -71 -149 -184
-263 -331 -335 -105 -51 -187 -70 -311 -70 -530 -1 -871 549 -638 1026 90 183
257 318 464 374 110 30 284 23 395 -14z"/>
<path d="M1070 1874 c-94 -15 -145 -31 -219 -66 -68 -32 -101 -57 -166 -122
-128 -129 -185 -266 -185 -448 0 -180 56 -314 185 -444 155 -157 356 -221 566
-180 245 48 437 230 499 472 98 382 -180 761 -575 787 -44 3 -91 3 -105 1z
m198 -79 c227 -54 408 -258 435 -492 l5 -43 -99 0 -99 0 0 28 c-1 43 -154 260
-196 278 -47 20 -101 17 -139 -6 -32 -20 -32 -20 -71 1 -41 21 -112 21 -153 0
-26 -14 -201 -259 -201 -282 0 -17 -9 -19 -96 -19 l-96 0 7 53 c22 161 123
320 258 405 55 35 147 74 202 85 47 10 185 6 243 -8z m-160 -253 c27 -20 27
-20 72 4 95 49 136 29 230 -112 62 -91 69 -106 49 -100 -83 24 -212 16 -301
-19 -14 -6 -18 -2 -19 16 -1 20 -2 19 -8 -6 -6 -26 -11 -30 -41 -30 -19 0 -51
4 -70 8 -26 5 -31 4 -20 -3 12 -9 10 -11 -10 -9 -14 1 -45 1 -70 0 -34 -1 -41
-4 -30 -11 9 -6 41 -8 76 -4 38 4 69 2 80 -5 15 -8 2 -10 -58 -11 -42 0 -84
-3 -94 -7 -11 -4 -15 -3 -10 5 4 7 -2 8 -24 2 -52 -15 -131 19 -85 36 8 4 13
9 10 14 -2 4 33 58 78 120 63 87 90 116 117 126 44 17 92 11 128 -14z m220
-209 c-10 -2 -26 -2 -35 0 -10 3 -2 5 17 5 19 0 27 -2 18 -5z m46 -14 c60 -1
75 -3 56 -10 -19 -7 -15 -8 19 -5 30 3 40 2 30 -5 -11 -7 -10 -9 6 -9 15 0 17
-3 7 -9 -8 -4 -13 -12 -13 -16 2 -13 -57 -13 -139 -1 l-75 11 55 6 55 6 -67 1
c-37 1 -78 -2 -93 -8 -19 -7 -24 -7 -19 1 4 8 -4 9 -27 5 -32 -5 -31 -4 6 9
22 7 49 14 60 14 17 1 18 3 5 12 -11 8 -7 9 19 5 18 -3 70 -6 115 -7z m-91
-66 c-13 -2 -33 -2 -45 0 -13 2 -3 4 22 4 25 0 35 -2 23 -4z m-208 -58 c15
-14 25 -36 25 -53 0 -33 -34 -82 -56 -82 -19 0 -18 34 1 50 34 29 5 77 -40 66
-20 -5 -25 -13 -25 -36 0 -16 5 -32 10 -35 10 -6 14 -45 4 -45 -32 0 -69 63
-57 98 22 63 94 82 138 37z m234 -1 c12 -15 21 -40 21 -57 0 -32 -33 -77 -57
-77 -18 0 -16 28 3 47 32 32 -6 91 -43 67 -21 -13 -29 -52 -14 -67 14 -14 14
-47 1 -47 -23 0 -50 41 -50 77 0 51 32 83 81 83 29 0 42 -6 58 -26z m-397 -2
c-1 -7 -4 -27 -6 -45 -2 -22 -9 -33 -22 -35 -11 -2 -49 -25 -87 -50 -57 -39
-76 -46 -127 -50 l-60 -4 -15 35 c-24 59 -22 62 48 62 55 0 70 4 105 30 23 17
56 40 74 53 35 25 95 28 90 4z m544 -17 c85 -60 131 -78 186 -72 27 4 48 2 48
-3 0 -5 -7 -28 -17 -51 l-16 -41 -58 4 c-44 3 -70 12 -111 38 -29 19 -70 42
-90 53 -26 13 -38 26 -38 41 0 11 -3 31 -6 44 -10 36 43 29 102 -13z m-526
-194 c0 -6 -4 -12 -9 -15 -5 -3 -12 -20 -15 -38 -7 -34 -9 -36 -113 -90 l-43
-22 -35 34 c-19 19 -35 37 -35 41 0 3 15 9 33 12 19 3 62 24 97 46 59 38 120
54 120 32z m145 -16 c32 -31 33 -80 3 -112 -12 -13 -27 -23 -35 -23 -18 0 -17
28 2 46 33 34 6 81 -40 70 -20 -5 -25 -13 -25 -36 0 -16 5 -32 10 -35 6 -3 10
-15 10 -26 0 -24 -15 -24 -40 1 -31 31 -30 83 3 118 28 31 80 30 112 -3z m230
0 c32 -31 33 -80 3 -112 -12 -13 -27 -23 -35 -23 -18 0 -16 37 3 44 20 8 15
55 -8 70 -35 22 -78 -38 -49 -67 14 -14 14 -47 1 -47 -23 0 -50 41 -50 77 0
76 82 112 135 58z m154 -17 c34 -23 78 -44 98 -47 l37 -6 -33 -38 c-18 -20
-40 -37 -49 -37 -9 0 -46 18 -83 41 -51 30 -68 46 -72 67 -2 15 -8 35 -12 45
-14 33 47 20 114 -25z m-278 -158 c54 -24 81 -25 141 -3 46 16 49 16 90 -3
l42 -21 -44 -26 c-58 -33 -164 -65 -243 -73 -78 -7 -187 15 -276 56 l-66 31
25 20 c37 28 61 32 102 14 49 -20 85 -19 128 4 46 24 50 24 101 1z"/>
<path d="M835 1325 l-40 -14 45 6 c25 3 54 9 65 14 36 14 -25 9 -70 -6z"/>
<path d="M968 1333 c12 -2 30 -2 40 0 9 3 -1 5 -23 4 -22 0 -30 -2 -17 -4z"/>
<path d="M1060 1315 c46 -18 64 -17 25 0 -16 8 -37 14 -45 14 -8 0 1 -7 20
-14z"/>
<path d="M300 456 c0 -19 -72 -40 -106 -32 l-24 6 0 -120 0 -120 28 0 c15 0
51 7 79 14 29 8 55 11 58 7 2 -5 37 -11 76 -15 89 -8 122 -16 332 -78 351
-103 424 -104 734 -4 217 70 418 106 479 87 16 -5 48 -12 72 -15 l42 -6 0 122
0 123 -42 -3 c-51 -4 -98 12 -98 33 0 29 -117 2 -395 -90 -223 -75 -284 -87
-425 -86 -135 0 -209 16 -460 100 -113 38 -225 72 -250 75 -25 4 -57 9 -72 12
-21 4 -28 2 -28 -10z m360 -101 c263 -86 319 -98 460 -98 135 0 179 10 450 98
124 41 249 78 278 83 60 11 58 16 42 -101 -18 -123 -12 -114 -82 -122 -91 -10
-175 -30 -328 -79 -207 -67 -277 -80 -389 -73 -94 6 -148 18 -427 100 -67 20
-164 42 -215 49 l-94 13 -12 80 c-6 44 -12 94 -12 111 l-1 31 53 -9 c28 -5
153 -43 277 -83z m-340 -21 c7 -48 8 -89 4 -93 -10 -9 -94 -31 -118 -31 -13 0
-16 16 -16 93 l0 94 48 10 c26 6 52 11 58 12 8 0 17 -32 24 -85z m1683 69 l47
-6 0 -93 c0 -107 2 -106 -99 -82 -58 13 -59 13 -39 129 9 58 14 69 27 63 9 -3
37 -9 64 -11z"/>
<path d="M1851 338 c-1 -34 -18 -36 -31 -5 l-9 22 0 -23 c-1 -25 25 -40 41
-24 5 5 8 20 5 33 -4 22 -4 22 -6 -3z"/>
<path d="M385 323 c-17 -25 -17 -26 0 -19 11 4 22 1 27 -6 5 -9 8 -4 8 14 0
38 -15 43 -35 11z"/>
<path d="M1765 340 c-11 -5 -15 -9 -9 -9 6 -1 16 -11 23 -23 11 -22 11 -22 6
4 -3 16 0 28 8 31 6 3 8 5 2 6 -5 0 -19 -4 -30 -9z"/>
<path d="M440 316 c0 -29 12 -39 34 -30 21 8 21 40 0 48 -27 10 -34 7 -34 -18z
m35 -6 c0 -7 -6 -15 -12 -17 -8 -3 -13 4 -13 17 0 13 5 20 13 18 6 -3 12 -11
12 -18z"/>
<path d="M500 301 c0 -33 14 -42 24 -15 4 10 2 13 -6 8 -8 -5 -9 -2 -5 9 3 9
2 19 -3 22 -6 4 -10 -7 -10 -24z"/>
<path d="M1737 313 c5 -15 3 -16 -8 -5 -7 6 -17 12 -21 12 -12 0 -9 -38 4 -46
8 -5 9 -2 5 10 -5 14 -3 15 13 6 10 -5 21 -10 23 -10 8 0 -5 40 -14 46 -5 3
-6 -3 -2 -13z"/>
<path d="M534 304 c3 -9 6 -23 6 -32 1 -15 3 -14 15 2 8 11 15 25 15 30 0 6
-5 4 -10 -4 -8 -13 -10 -12 -10 3 0 9 -5 17 -11 17 -6 0 -8 -7 -5 -16z"/>
<path d="M586 303 c-10 -11 -7 -53 5 -53 5 0 7 5 4 10 -3 6 0 10 7 10 10 0 10
2 -1 9 -11 7 -10 10 5 13 17 3 17 4 2 10 -9 4 -19 4 -22 1z"/>
<path d="M1676 286 c8 -32 -9 -34 -24 -3 -8 16 -11 17 -11 6 -1 -21 25 -43 39
-34 13 8 13 42 0 50 -7 4 -9 -2 -4 -19z"/>
<path d="M630 281 c0 -5 -3 -18 -6 -28 -6 -16 -5 -16 9 2 16 20 16 20 17 -2 0
-13 5 -23 10 -23 6 0 10 4 10 9 0 5 3 18 6 28 5 15 4 15 -5 3 -8 -12 -11 -12
-17 3 -6 18 -24 24 -24 8z"/>
<path d="M1590 273 c0 -10 5 -25 10 -33 8 -13 10 -12 10 3 0 9 5 17 10 17 6 0
10 7 10 15 0 8 -9 15 -20 15 -12 0 -20 -7 -20 -17z m30 3 c0 -3 -4 -8 -10 -11
-5 -3 -10 -1 -10 4 0 6 5 11 10 11 6 0 10 -2 10 -4z"/>
<path d="M1551 258 c-5 -13 -6 -27 -3 -33 4 -5 8 -2 10 8 3 14 7 15 17 7 11
-9 12 -7 8 10 -8 31 -22 34 -32 8z"/>
<path d="M1520 241 c0 -29 15 -33 16 -5 1 13 -2 24 -7 24 -5 0 -9 -9 -9 -19z"/>
<path d="M729 229 c-7 -13 -7 -19 -1 -15 6 4 15 -2 21 -11 9 -16 10 -16 11 5
0 15 -4 21 -12 17 -7 -4 -4 1 6 9 17 14 17 16 3 16 -9 0 -21 -10 -28 -21z"/>
<path d="M1455 238 c-4 -9 -5 -25 -2 -35 3 -13 5 -12 6 6 1 24 1 24 15 5 8
-10 17 -17 19 -14 3 3 -3 16 -13 30 -16 22 -20 23 -25 8z"/>
<path d="M787 226 c-4 -10 -7 -25 -6 -34 0 -11 2 -13 6 -4 4 10 8 10 21 0 13
-11 15 -10 10 3 -4 9 -1 22 5 29 9 10 8 12 -5 7 -9 -3 -18 -1 -21 6 -2 6 -6 3
-10 -7z"/>
<path d="M1410 223 c0 -5 8 -17 17 -28 14 -18 15 -18 9 -2 -3 10 -6 23 -6 28
0 5 -4 9 -10 9 -5 0 -10 -3 -10 -7z"/>
<path d="M833 204 c-3 -8 -1 -20 5 -26 7 -7 10 -5 9 7 -1 10 4 20 12 23 10 3
12 -1 8 -17 -3 -11 -2 -21 3 -21 11 0 18 22 13 38 -7 17 -42 15 -50 -4z"/>
<path d="M1370 201 c0 -29 15 -33 16 -5 1 13 -2 24 -7 24 -5 0 -9 -9 -9 -19z"/>
<path d="M900 201 c0 -5 -3 -18 -6 -28 -5 -15 -4 -16 6 -3 9 12 13 12 17 2 4
-10 8 -10 21 0 13 11 15 10 9 -4 -3 -10 -2 -18 3 -18 6 0 10 11 10 25 0 27 -9
32 -28 13 -9 -9 -12 -8 -12 5 0 9 -4 17 -10 17 -5 0 -10 -4 -10 -9z"/>
<path d="M981 181 c-16 -29 -13 -39 6 -16 12 16 14 16 10 3 -3 -10 -2 -20 3
-23 6 -4 10 5 10 19 0 32 -16 42 -29 17z"/>
<path d="M1300 174 c0 -14 4 -23 10 -19 5 3 7 13 4 23 -5 16 -5 16 6 0 6 -10
15 -18 21 -18 5 0 4 9 -3 20 -18 28 -38 25 -38 -6z"/>
<path d="M1396 185 c4 -8 8 -15 10 -15 2 0 4 7 4 15 0 8 -4 15 -10 15 -5 0 -7
-7 -4 -15z"/>
<path d="M1047 163 c-7 -36 -2 -41 13 -13 8 14 8 26 2 32 -6 6 -11 -1 -15 -19z"/>
<path d="M1251 178 c-1 -10 6 -18 15 -18 8 0 12 -4 9 -10 -3 -5 -1 -10 4 -10
6 0 11 7 11 15 0 8 -6 15 -14 15 -8 0 -17 6 -19 13 -3 7 -6 5 -6 -5z"/>
<path d="M1116 164 c-9 -24 -7 -36 5 -28 6 3 15 0 20 -7 7 -11 9 -11 9 3 0 22
-10 48 -20 48 -4 0 -11 -7 -14 -16z"/>
<path d="M1189 148 c4 -32 5 -32 11 -8 7 26 4 40 -9 40 -4 0 -5 -15 -2 -32z"/>
<path d="M1216 165 c-3 -10 -2 -23 4 -29 15 -15 24 1 13 26 -9 20 -10 20 -17
3z"/>
<path d="M1070 151 c0 -5 5 -13 10 -16 6 -3 10 -2 10 4 0 5 -4 13 -10 16 -5 3
-10 2 -10 -4z"/>
</g>
</svg>
